<mxfile host="app.diagrams.net" agent="Mozilla/5.0 (Windows NT 10.0; Win64; x64) AppleWebKit/537.36 (KHTML, like Gecko) Chrome/128.0.0.0 Safari/537.36 Edg/128.0.0.0" version="24.7.14">
  <diagram name="Page-1" id="S4Qsapw57uPhdEScr6_6">
    <mxGraphModel dx="1666" dy="749" grid="1" gridSize="10" guides="1" tooltips="1" connect="1" arrows="1" fold="1" page="1" pageScale="1" pageWidth="850" pageHeight="1100" math="0" shadow="0">
      <root>
        <mxCell id="0" />
        <mxCell id="1" parent="0" />
        <mxCell id="IWy27tR6ok5WcABGNkFq-47" value="&lt;b&gt;sa_mesh_run_within_grid.f90&lt;/b&gt;" style="rounded=0;whiteSpace=wrap;html=1;fillColor=#F8CECC;" vertex="1" parent="1">
          <mxGeometry x="368.07" y="40" width="180" height="50" as="geometry" />
        </mxCell>
        <mxCell id="IWy27tR6ok5WcABGNkFq-48" style="edgeStyle=orthogonalEdgeStyle;rounded=0;orthogonalLoop=1;jettySize=auto;html=1;entryX=0.5;entryY=0;entryDx=0;entryDy=0;" edge="1" parent="1" source="IWy27tR6ok5WcABGNkFq-49" target="IWy27tR6ok5WcABGNkFq-69">
          <mxGeometry relative="1" as="geometry" />
        </mxCell>
        <mxCell id="IWy27tR6ok5WcABGNkFq-49" value="&lt;b&gt;run_within_grid_init&lt;/b&gt;" style="rounded=1;whiteSpace=wrap;html=1;" vertex="1" parent="1">
          <mxGeometry x="195.88" y="160" width="132.96" height="50" as="geometry" />
        </mxCell>
        <mxCell id="IWy27tR6ok5WcABGNkFq-50" style="edgeStyle=orthogonalEdgeStyle;rounded=0;orthogonalLoop=1;jettySize=auto;html=1;entryX=0.5;entryY=0;entryDx=0;entryDy=0;" edge="1" parent="1" source="IWy27tR6ok5WcABGNkFq-51" target="IWy27tR6ok5WcABGNkFq-73">
          <mxGeometry relative="1" as="geometry" />
        </mxCell>
        <mxCell id="IWy27tR6ok5WcABGNkFq-51" value="&lt;b&gt;run_within_grid&lt;/b&gt;" style="rounded=1;whiteSpace=wrap;html=1;" vertex="1" parent="1">
          <mxGeometry x="571.87" y="150" width="126.58" height="40" as="geometry" />
        </mxCell>
        <mxCell id="IWy27tR6ok5WcABGNkFq-52" value="" style="edgeStyle=orthogonalEdgeStyle;rounded=0;orthogonalLoop=1;jettySize=auto;html=1;" edge="1" parent="1" source="IWy27tR6ok5WcABGNkFq-53" target="IWy27tR6ok5WcABGNkFq-55">
          <mxGeometry relative="1" as="geometry" />
        </mxCell>
        <mxCell id="IWy27tR6ok5WcABGNkFq-53" value="&lt;div style=&quot;&quot;&gt;&lt;div style=&quot;text-align: center;&quot;&gt;&amp;nbsp; run_within_grid_stas_update&amp;nbsp;(fls, shd, cm)&lt;br&gt;&lt;/div&gt;&lt;/div&gt;" style="whiteSpace=wrap;html=1;rounded=1;align=left;fillColor=#CCFFCC;" vertex="1" parent="1">
          <mxGeometry x="506.0899999999999" y="400" width="251.57" height="50" as="geometry" />
        </mxCell>
        <mxCell id="IWy27tR6ok5WcABGNkFq-54" value="" style="edgeStyle=orthogonalEdgeStyle;rounded=0;orthogonalLoop=1;jettySize=auto;html=1;entryX=0.5;entryY=0;entryDx=0;entryDy=0;" edge="1" parent="1" source="IWy27tR6ok5WcABGNkFq-55" target="IWy27tR6ok5WcABGNkFq-74">
          <mxGeometry relative="1" as="geometry">
            <mxPoint x="635.87" y="580" as="targetPoint" />
          </mxGeometry>
        </mxCell>
        <mxCell id="IWy27tR6ok5WcABGNkFq-55" value="&lt;div style=&quot;text-align: center;&quot;&gt;&lt;span style=&quot;background-color: initial;&quot;&gt;&amp;nbsp; &amp;nbsp; &amp;nbsp;Call process:&lt;/span&gt;&lt;/div&gt;&lt;div style=&quot;text-align: center;&quot;&gt;&amp;nbsp; &amp;nbsp; &amp;nbsp;bflm_within_grid&amp;nbsp;(fls, shd, cm)&lt;br&gt;&lt;/div&gt;" style="whiteSpace=wrap;html=1;align=left;rounded=1;fillColor=#FFE599;" vertex="1" parent="1">
          <mxGeometry x="541.8800000000001" y="480" width="180" height="50" as="geometry" />
        </mxCell>
        <mxCell id="IWy27tR6ok5WcABGNkFq-56" style="edgeStyle=orthogonalEdgeStyle;rounded=0;orthogonalLoop=1;jettySize=auto;html=1;entryX=0.5;entryY=0;entryDx=0;entryDy=0;" edge="1" parent="1" source="IWy27tR6ok5WcABGNkFq-57" target="IWy27tR6ok5WcABGNkFq-75">
          <mxGeometry relative="1" as="geometry" />
        </mxCell>
        <mxCell id="IWy27tR6ok5WcABGNkFq-57" value="&lt;div style=&quot;&quot;&gt;&lt;div style=&quot;text-align: center;&quot;&gt;&amp;nbsp; run_within_grid_stas_update&amp;nbsp;(fls, shd, cm)&lt;br&gt;&lt;/div&gt;&lt;/div&gt;" style="whiteSpace=wrap;html=1;rounded=1;align=left;fillColor=#CCFFCC;" vertex="1" parent="1">
          <mxGeometry x="140.75" y="400" width="242.07" height="40" as="geometry" />
        </mxCell>
        <mxCell id="IWy27tR6ok5WcABGNkFq-58" style="edgeStyle=orthogonalEdgeStyle;rounded=0;orthogonalLoop=1;jettySize=auto;html=1;" edge="1" parent="1" source="IWy27tR6ok5WcABGNkFq-59" target="IWy27tR6ok5WcABGNkFq-79">
          <mxGeometry relative="1" as="geometry" />
        </mxCell>
        <mxCell id="IWy27tR6ok5WcABGNkFq-59" value="&lt;b&gt;run_within_grid_stas_update&lt;/b&gt;" style="rounded=1;whiteSpace=wrap;html=1;" vertex="1" parent="1">
          <mxGeometry x="168.02" y="790" width="179.5" height="60" as="geometry" />
        </mxCell>
        <mxCell id="IWy27tR6ok5WcABGNkFq-60" value="" style="edgeStyle=orthogonalEdgeStyle;rounded=0;orthogonalLoop=1;jettySize=auto;html=1;" edge="1" parent="1" source="IWy27tR6ok5WcABGNkFq-61" target="IWy27tR6ok5WcABGNkFq-63">
          <mxGeometry relative="1" as="geometry" />
        </mxCell>
        <mxCell id="IWy27tR6ok5WcABGNkFq-61" value="Initializes grid variables to 0.0" style="whiteSpace=wrap;html=1;rounded=1;" vertex="1" parent="1">
          <mxGeometry x="164.32000000000002" y="1050" width="190" height="50" as="geometry" />
        </mxCell>
        <mxCell id="IWy27tR6ok5WcABGNkFq-62" value="" style="edgeStyle=orthogonalEdgeStyle;rounded=0;orthogonalLoop=1;jettySize=auto;html=1;" edge="1" parent="1" source="IWy27tR6ok5WcABGNkFq-63" target="IWy27tR6ok5WcABGNkFq-65">
          <mxGeometry relative="1" as="geometry" />
        </mxCell>
        <mxCell id="IWy27tR6ok5WcABGNkFq-63" value="Updates the grid variable by adding the product of the tile variable value and a fraction derived from ACLASS variable" style="whiteSpace=wrap;html=1;rounded=1;" vertex="1" parent="1">
          <mxGeometry x="168.00000000000003" y="1130" width="182.62" height="70" as="geometry" />
        </mxCell>
        <mxCell id="IWy27tR6ok5WcABGNkFq-64" style="edgeStyle=orthogonalEdgeStyle;rounded=0;orthogonalLoop=1;jettySize=auto;html=1;entryX=0.5;entryY=0;entryDx=0;entryDy=0;" edge="1" parent="1" source="IWy27tR6ok5WcABGNkFq-65" target="IWy27tR6ok5WcABGNkFq-80">
          <mxGeometry relative="1" as="geometry" />
        </mxCell>
        <mxCell id="IWy27tR6ok5WcABGNkFq-65" value="Variables&amp;nbsp;cmas, tcan, gro, tsno, rhosno, tpnd, tice are normalized by fractional coverage arrays" style="whiteSpace=wrap;html=1;rounded=1;" vertex="1" parent="1">
          <mxGeometry x="148.32" y="1230" width="222" height="65" as="geometry" />
        </mxCell>
        <mxCell id="IWy27tR6ok5WcABGNkFq-66" style="edgeStyle=orthogonalEdgeStyle;rounded=0;orthogonalLoop=1;jettySize=auto;html=1;exitX=0.5;exitY=1;exitDx=0;exitDy=0;entryX=0.5;entryY=0;entryDx=0;entryDy=0;" edge="1" parent="1" source="IWy27tR6ok5WcABGNkFq-67" target="IWy27tR6ok5WcABGNkFq-57">
          <mxGeometry relative="1" as="geometry" />
        </mxCell>
        <mxCell id="IWy27tR6ok5WcABGNkFq-67" value="&lt;div&gt;ro%RUNTILE == True&lt;/div&gt;" style="rhombus;whiteSpace=wrap;html=1;rounded=1;fillColor=#F19C99;" vertex="1" parent="1">
          <mxGeometry x="168.34" y="320" width="186.89" height="60" as="geometry" />
        </mxCell>
        <mxCell id="IWy27tR6ok5WcABGNkFq-68" style="edgeStyle=orthogonalEdgeStyle;rounded=0;orthogonalLoop=1;jettySize=auto;html=1;" edge="1" parent="1" source="IWy27tR6ok5WcABGNkFq-69" target="IWy27tR6ok5WcABGNkFq-67">
          <mxGeometry relative="1" as="geometry" />
        </mxCell>
        <mxCell id="IWy27tR6ok5WcABGNkFq-69" value="Initialize variables and parameters e.g. fls, shd,&amp;nbsp;cm, etc." style="rounded=1;whiteSpace=wrap;html=1;" vertex="1" parent="1">
          <mxGeometry x="194.7321052631579" y="239.99898203592812" width="134.10526315789477" height="56.40718562874251" as="geometry" />
        </mxCell>
        <mxCell id="IWy27tR6ok5WcABGNkFq-70" style="edgeStyle=orthogonalEdgeStyle;rounded=0;orthogonalLoop=1;jettySize=auto;html=1;entryX=0.5;entryY=0;entryDx=0;entryDy=0;" edge="1" parent="1" source="IWy27tR6ok5WcABGNkFq-71" target="IWy27tR6ok5WcABGNkFq-53">
          <mxGeometry relative="1" as="geometry" />
        </mxCell>
        <mxCell id="IWy27tR6ok5WcABGNkFq-71" value="&lt;div&gt;ro%RUNTILE == True&lt;/div&gt;" style="rhombus;whiteSpace=wrap;html=1;rounded=1;fillColor=#F19C99;" vertex="1" parent="1">
          <mxGeometry x="538.4300000000001" y="310" width="186.89" height="60" as="geometry" />
        </mxCell>
        <mxCell id="IWy27tR6ok5WcABGNkFq-72" style="edgeStyle=orthogonalEdgeStyle;rounded=0;orthogonalLoop=1;jettySize=auto;html=1;entryX=0.5;entryY=0;entryDx=0;entryDy=0;" edge="1" parent="1" source="IWy27tR6ok5WcABGNkFq-73" target="IWy27tR6ok5WcABGNkFq-71">
          <mxGeometry relative="1" as="geometry" />
        </mxCell>
        <mxCell id="IWy27tR6ok5WcABGNkFq-73" value="Initialize variables and parameters e.g. fls, shd,&amp;nbsp;cm, etc." style="rounded=1;whiteSpace=wrap;html=1;" vertex="1" parent="1">
          <mxGeometry x="564.8221052631578" y="219.99898203592812" width="134.10526315789477" height="56.40718562874251" as="geometry" />
        </mxCell>
        <mxCell id="IWy27tR6ok5WcABGNkFq-74" value="end subroutine" style="whiteSpace=wrap;html=1;rounded=1;" vertex="1" parent="1">
          <mxGeometry x="574.2" y="560" width="119.52" height="40" as="geometry" />
        </mxCell>
        <mxCell id="IWy27tR6ok5WcABGNkFq-75" value="end subroutine" style="whiteSpace=wrap;html=1;rounded=1;" vertex="1" parent="1">
          <mxGeometry x="203.60000000000002" y="465" width="116.38" height="35" as="geometry" />
        </mxCell>
        <mxCell id="IWy27tR6ok5WcABGNkFq-76" style="edgeStyle=orthogonalEdgeStyle;rounded=0;orthogonalLoop=1;jettySize=auto;html=1;" edge="1" parent="1" source="IWy27tR6ok5WcABGNkFq-77" target="IWy27tR6ok5WcABGNkFq-61">
          <mxGeometry relative="1" as="geometry" />
        </mxCell>
        <mxCell id="IWy27tR6ok5WcABGNkFq-77" value="&lt;div&gt;ro%RUNTILE == True&lt;/div&gt;" style="rhombus;whiteSpace=wrap;html=1;rounded=1;fillColor=#F19C99;" vertex="1" parent="1">
          <mxGeometry x="164.32000000000002" y="960" width="186.89" height="60" as="geometry" />
        </mxCell>
        <mxCell id="IWy27tR6ok5WcABGNkFq-78" style="edgeStyle=orthogonalEdgeStyle;rounded=0;orthogonalLoop=1;jettySize=auto;html=1;" edge="1" parent="1" source="IWy27tR6ok5WcABGNkFq-79" target="IWy27tR6ok5WcABGNkFq-77">
          <mxGeometry relative="1" as="geometry" />
        </mxCell>
        <mxCell id="IWy27tR6ok5WcABGNkFq-79" value="Initialize variables and parameters e.g. fls, shd,&amp;nbsp;cm, etc." style="rounded=1;whiteSpace=wrap;html=1;" vertex="1" parent="1">
          <mxGeometry x="190.71210526315784" y="879.9989820359281" width="134.10526315789477" height="56.40718562874251" as="geometry" />
        </mxCell>
        <mxCell id="IWy27tR6ok5WcABGNkFq-80" value="end subroutine" style="whiteSpace=wrap;html=1;rounded=1;" vertex="1" parent="1">
          <mxGeometry x="192.82999999999998" y="1330" width="132.96" height="40" as="geometry" />
        </mxCell>
        <mxCell id="IWy27tR6ok5WcABGNkFq-81" value="" style="group" vertex="1" connectable="0" parent="1">
          <mxGeometry x="10" y="10" width="310" height="110" as="geometry" />
        </mxCell>
        <mxCell id="IWy27tR6ok5WcABGNkFq-82" value="" style="rounded=0;whiteSpace=wrap;html=1;" vertex="1" parent="IWy27tR6ok5WcABGNkFq-81">
          <mxGeometry width="309.99999999999994" height="110.00000000000001" as="geometry" />
        </mxCell>
        <mxCell id="IWy27tR6ok5WcABGNkFq-83" value="&lt;font style=&quot;font-size: 9px;&quot;&gt;Dependencies&lt;/font&gt;&lt;div&gt;&lt;div&gt;&lt;font style=&quot;font-size: 9px;&quot;&gt;Driver\MESH_Driver\sa_mesh_run_within_grid.f90:&lt;/font&gt; &lt;font style=&quot;font-size: 9px;&quot;&gt;run_within_grid_stas_update&lt;/font&gt;&lt;/div&gt;&lt;div&gt;&lt;font style=&quot;font-size: 9px;&quot;&gt;Driver\MESH_Driver\sa_mesh_run_within_grid.f90: run_within_grid_stas_update&lt;/font&gt;&lt;/div&gt;&lt;div&gt;&lt;font style=&quot;font-size: 9px;&quot;&gt;Routing_Model\baseflow_module\baseflow_module.f90: bflm_within_grid&lt;/font&gt;&lt;/div&gt;&lt;/div&gt;" style="text;html=1;align=left;verticalAlign=middle;whiteSpace=wrap;rounded=0;" vertex="1" parent="IWy27tR6ok5WcABGNkFq-81">
          <mxGeometry x="7.153250000000001" width="295.09674999999993" height="107.027027027027" as="geometry" />
        </mxCell>
        <mxCell id="IWy27tR6ok5WcABGNkFq-84" value="&lt;b&gt;run_within_grid_mpi_isend&lt;/b&gt;" style="rounded=1;whiteSpace=wrap;html=1;" vertex="1" parent="1">
          <mxGeometry x="175.73" y="670" width="179.5" height="60" as="geometry" />
        </mxCell>
        <mxCell id="IWy27tR6ok5WcABGNkFq-85" value="&lt;b&gt;run_within_grid_mpi_irecv&lt;/b&gt;" style="rounded=1;whiteSpace=wrap;html=1;" vertex="1" parent="1">
          <mxGeometry x="538.43" y="670" width="179.5" height="60" as="geometry" />
        </mxCell>
        <mxCell id="IWy27tR6ok5WcABGNkFq-86" value="" style="edgeStyle=orthogonalEdgeStyle;rounded=0;orthogonalLoop=1;jettySize=auto;html=1;" edge="1" parent="1" source="IWy27tR6ok5WcABGNkFq-87" target="IWy27tR6ok5WcABGNkFq-90">
          <mxGeometry relative="1" as="geometry">
            <mxPoint x="639.75" y="882" as="targetPoint" />
          </mxGeometry>
        </mxCell>
        <mxCell id="IWy27tR6ok5WcABGNkFq-87" value="&lt;b&gt;run_within_grid_finalize&lt;/b&gt;" style="rounded=1;whiteSpace=wrap;html=1;" vertex="1" parent="1">
          <mxGeometry x="561.75" y="790" width="158" height="60" as="geometry" />
        </mxCell>
        <mxCell id="IWy27tR6ok5WcABGNkFq-88" value="end subroutine" style="whiteSpace=wrap;html=1;rounded=1;" vertex="1" parent="1">
          <mxGeometry x="582.5299999999999" y="1070" width="116.44" height="40" as="geometry" />
        </mxCell>
        <mxCell id="IWy27tR6ok5WcABGNkFq-89" style="edgeStyle=orthogonalEdgeStyle;rounded=0;orthogonalLoop=1;jettySize=auto;html=1;entryX=0.5;entryY=0;entryDx=0;entryDy=0;" edge="1" parent="1" source="IWy27tR6ok5WcABGNkFq-90" target="IWy27tR6ok5WcABGNkFq-92">
          <mxGeometry relative="1" as="geometry" />
        </mxCell>
        <mxCell id="IWy27tR6ok5WcABGNkFq-90" value="Initialize variables and parameters e.g. fls, shd, cm, etc." style="rounded=1;whiteSpace=wrap;html=1;" vertex="1" parent="1">
          <mxGeometry x="574.2021052631578" y="883.2089820359281" width="134.10526315789477" height="56.40718562874251" as="geometry" />
        </mxCell>
        <mxCell id="IWy27tR6ok5WcABGNkFq-91" style="edgeStyle=orthogonalEdgeStyle;rounded=0;orthogonalLoop=1;jettySize=auto;html=1;" edge="1" parent="1" source="IWy27tR6ok5WcABGNkFq-92" target="IWy27tR6ok5WcABGNkFq-88">
          <mxGeometry relative="1" as="geometry" />
        </mxCell>
        <mxCell id="IWy27tR6ok5WcABGNkFq-92" value="head node and&amp;nbsp;&lt;div&gt;ro%RUNGRID == True&lt;/div&gt;" style="rhombus;whiteSpace=wrap;html=1;rounded=1;fillColor=#F19C99;" vertex="1" parent="1">
          <mxGeometry x="556.5" y="963.21" width="168.5" height="83.59" as="geometry" />
        </mxCell>
      </root>
    </mxGraphModel>
  </diagram>
</mxfile>
